<?xml version="1.0" encoding="UTF-8"?>
<svg viewBox="0 0 640 480" xmlns="http://www.w3.org/2000/svg">
 <g fill="#ffd700" fill-rule="evenodd" stroke="#2e2a33" stroke-width="3">
  <path d="m471.93 174.51c-37.213-15.209-75.185-22.434-113.52-26.022 10.608-28.055-0.083893-52.035-20.587-60.491l-0.9748-12.58h8.918l8.1732 8.7021c13.83-16.892 11.79-32.94-1.1133-48.386l-3.7162 7.7428-10.037 0.4746v-6.2836l6.3132-9.6766c-15.925-10.309-32.406-10.468-49.443-0.47458l8.918 6.7709 3.3438 10.161h-10.404l-7.06-7.2581c-11.447 14.841-11.197 32.586 0.73895 53.235l6.2217-13.9 8.645 0.3578-0.6024 11.489c-24.904 14.552-30.281 34.915-16.124 61.095-41.759 1.8554-81.53 12.344-119.95 28.73-15.202-21.82-31.66-16.448-44.356-49.152 2.636 39.871-7.1068 51.431-6.2294 75.708-14.204 8.5169-26.74 20.66-37.6 36.433-20.275-24.525-38.371-33.448-56.406-41.874 15.598 29.731 23.672 60.539 35.514 90.815-1.318 12.778 1.8737 22.383 15.042 25.012l33.838 65.257c-4.0359 13.415 0.97489 25.378 11.279 27.192l14.204 25.013c58.492-11.836 117.41-20.957 175.9-21.384 67.677-0.47714 133.28 7.7225 202.63 18.655l13.365-28.817c10.998-0.90094 17.822-13.047 12.11-27.728l33.001-63.623c15.461-0.90344 17.411-9.9634 15.042-28.274l30.496-87.008c-17.267 16.496-38.302 22.652-51.806 39.694-10.616-14.138-23.221-24.833-37.181-33.172 1.9498-32.801-7.7988-45.49-7.9354-72.327-14.547 25.627-21.997 11.014-48.659 45.899l0.0138-0.0076zm16.056 122.79c5.3832-10.37-0.007904-11.41-4.6989-5.1746-14.882 27.322-9.0877 46.107 13.746 56.05 31.311 5.035 40.229-12.56 48.455-31.563 3.1449-7.9509 0.81494-12.77-3.6032-2.35-9.6647 12.6-8.0581 23.564-28.712 27.687 4.6072-17.597 7.333-47.853 24.196-80.435 5.1708-9.489 11.386-8.6744 17.592-8.3192-9.4736-13.133-21.995-23.393-35.376-32.862l-4.3948 9.4279c19.68 3.0124 26.678 19.122 13.313 45.837-6.132 23.921-32.231 42.917-31.827 65.041-14.707-7.0779-17.152-18.795-8.6822-43.32l-0.0078-0.0203zm-130.54-120.94c1.8581 8.278 0.50891 16.625-4.0456 25.04 29.125-14.65 52.011-3.4996 52.142 33.35-1.0587 26.418-26.345 51.646-20.076 86.888-22.4-3.5098-28.721-16.059-27.54-46.84-4.0222-14.523-17-10.14-12.932 12.014 8.6587 50.094 60.638 65.866 94.806 30.146 7.6-8.1083 11.973-17.942 13.114-29.512 0.062378-14.074-8.5066-12.29-12.299 6.4156-1.2029 21.323-14.007 30.829-34.723 32.238 10.367-24.068 3.5348-47.802 5.3091-71.702 5.621-37.542 32.178-62.036 55.224-41.239l0.5341-17.318c-32.081-13.93-76.338-19.965-109.51-19.49v0.010391zm-69.786-0.9517c-1.7606 8.3161-0.31387 16.635 4.3402 24.962-29.291-14.078-52.048-2.4695-51.736 34.38 1.3628 26.398 24.76 55.037 18.903 90.408 22.354-3.9564 32.178-22.99 30.663-50.835 3.8527-14.602 13.907-9.935 11.576 11.301-8.0642 50.248-59.855 67.054-94.439 32.019-7.6916-7.9509-12.186-17.706-13.457-29.246-0.23009-14.067 8.3702-12.461 12.375 6.1668 1.4544 21.305 14.364 30.553 35.095 31.555-10.655-23.863-4.0964-47.723-6.1456-71.583-6.0617-37.423-27.608-54.246-55.704-40.141l-0.7389-17.308c38.963-13.699 75.825-21.104 109.28-21.66l-0.0078-0.0203zm-127.37 125.28c-2.2169-9.339 1.0646-11.062 4.6988-5.1746 14.005 26.746 5.2935 43.627-13.748 56.04-31.311 5.0376-41.34-12.075-49.574-31.078-3.1449-7.9509-0.44062-12.768 3.9755-2.35 9.6648 12.6 6.9469 27.441 37.265 31.078-21.34-26.309-15.14-51.726-32.011-84.31-5.1707-9.4888-11.384-8.6739-17.592-8.3088 11.242-12.372 23.206-22.878 35.378-32.862l3.6557 7.484c-19.68 6.4054-25.933 21.056-12.568 47.771 6.1319 23.921 32.233 42.917 31.829 65.052 11.728-6.6008 17.15-18.795 8.6822-43.32"/>
  <path d="m123.38 212.62l-40.883 37.204 3.9754 7.061 40.884-38.613-3.976-5.652zm401.23-2.667c13.381 5.959 25.773 16.447 37.181 31.456l-4.455 6.284c-11.774-15.562-23.541-24.922-35.315-31.454l2.597-6.286h-0.007996zm-171.78-55.177l1.113 11.608 4.828 0.477c37.54 1.041 75.119 7.167 109.69 23.713l1.85-7.258c-35.91-15.871-75.636-24.297-117.49-28.55l0.014 0.01zm-179.13 30.532c32.81-15.424 73.366-24.733 117.2-30.61 1.059 4.352 1.774 7.364 0.083984 11.727-39.886 2.715-77.098 11.252-115.16 25.923l-2.133-7.04h0.007996zm123.36-41.178l24.539-38.227 25.651 39.684c15.126-19.747 5.042-51.548-25.651-50.804-28.019 1.9034-38.986 27.329-24.539 49.357v-0.009995zm-5.574-93.404l5.2 3.2028 18.957 0.1776-0.739-15.97-6.405-7.7909c6.924-5.0452 18.302-4.1239 27.464-0.4772l-6.177 8.2784-0.045 15.97 14.547 0.1195 7.805-6.8904c3.899 9.111 3.899 17.498 0 25.16l-5.574-4.8371-16.725 0.4746v10.161l2.225 11.123-19.332 0.4774 2.971-21.769-18.957 0.9591-5.202 4.8296c-2.778-8.4661-2.778-16.209 0-23.229l-0.013 0.0304zm-158.53 109.22c16.869 13.63 40.541 15.615 42.62 65.883 27.982-26.06 44.798 1.945 51.812 25.45 5.12 17.147-3.709 37.985 4.653 67.477-11.187-2.538-18.111-12.481-20.776-29.82-6.032-28.884-30.548-21.727-22.909 9.012 16.153 39.831 44.54 47.744 69.931 44.094 27.891-4.004 52.194-28.669 49.938-69.055-7.631-21.026-15.978-21.729-25.04-2.071-5.325 14.561 2.657 38.135-15.98 43.688 1.242-28.195-22.018-56.397-21.843-78.364 3.9-37.334 24.684-41.727 57.008-23.574-17.762-46.117 4.256-71.774 20.242-93.622 17.047 24.04 34.272 44.381 20.244 92.927 38.235-26.965 66.603 2.725 56.33 30.058-8.37 22.274-23.214 56.533-20.632 72.565-28.059-7.16 0.349-56.636-29.833-56.864-20.952 6.702-16.512 43.687 6.923 67.271 13.138 12.938 29.124 18.488 47.952 16.635 23.098-0.52499 41.149-18.627 55.733-48.753 5.065-19.48-12.406-31.732-19.519-14.494-4.89 22.018-12.217 36.887-25.789 41.328 5.027-23.484 1.737-51.676 5.317-74.694 11.248-32.616 28.293-40.12 51.126-22.495 2.156-53.939 30.755-54.682 44.327-74.985 2.605 26.34 17.836 40.161-10.207 83.71 22.165 3.797 31.662 17.802 13.291 54.275-7.099 15.544-19.627 27.797-25.644 43.815-11.812-15.98 1.692-23.474 2.544-35.222 2.544-19.221-14.798-16.465-23.824 11.093-3.092 31.892 7.138 52.809 46.681 49.568 15.354-7.187 26.793-18.965 32.506-37.453 2.604-10.329-0.92999-16.427-8.454-12.63-7.823 10.874-17.831 34.955-23.489 32.654 3.664-15.89 9.131-32.723 12.802-48.615 7.67-28.897 18.546-36.934 32.637-24.118 3.556-24.208 22.755-36.689 35.931-44.47l-20.601 58.925c-18.614-3.708-18.462 15.731-14.539 26.159l-32.406 64.844c-16.992 2.984-23.337 14.523-12.628 26.299l-7.092 22.939c-125.91-34.567-251.14-34.776-375.63 2.766l-10.121-18.716c13.669-13.402 5.857-28.66-10.123-29.124l-34.63-63.11c9.6784-13.006 1.6358-30.263-15.446-27.736-6.8787-19.647-9.4211-35.549-20.648-58.965 18.119 6.692 34.325 20.592 38.224 45.79 9.9397-16.405 20.602-10.626 31.966 17.327 5.15 18.024 4.151 32.766 15.446 54.088-15.98-4.618-17.044-21.731-25.567-32.595-6.2155-7.395-15.096 0.457-9.0562 13.176 23.884 44.846 61.005 52.243 78.849 7.624 4.082-20.105-1.065-35.601-15.446-46.465-9.587 0-11.188 9.012-6.389 20.797 4.966 9.012 8.339 15.258 2.125 29.127-12.878-28.571-25.407-37.631-31.966-52.799-10.92-25.279-8.239-42.467 19.178-44.977-24.949-34.09-13.937-49.348-10.121-75.589l7e-3 0.011zm349.8 82.628c6.124 1.764 9.544 7.624 7.608 13.044-1.934 5.413-8.515 8.398-14.645 6.634-6.124-1.766-9.543-7.624-7.609-13.037 1.936-5.413 8.508-8.397 14.638-6.631l8e-3 -0.01zm1.622-5.679c9.177 2.715 14.303 11.737 11.402 20.073-2.895 8.337-12.757 12.925-21.942 10.21-9.177-2.716-14.303-11.738-11.402-20.074 2.895-8.337 12.757-12.928 21.934-10.209h0.007996zm89.132 47.791c4.578 0 8.317 4.124 8.317 9.179s-3.739 9.179-8.317 9.179-8.318-4.124-8.318-9.179 3.74-9.179 8.318-9.179zm-45.955 91.368c4.576 0 8.315 4.124 8.315 9.182 0 5.055-3.739 9.179-8.315 9.179-4.578 0-8.318-4.124-8.318-9.179 0-5.058 3.74-9.182 8.318-9.182zm-78.88-26.528c8.171 0.952 14.835 9.142 14.835 18.212 0 9.08-6.664 15.704-14.835 14.752-8.166-0.952-14.83-9.141-14.83-18.222 0-9.07 6.664-15.703 14.83-14.742zm-0.39 5.345c5.713 0.66501 10.374 6.393 10.374 12.737 0 6.345-4.661 10.976-10.374 10.311-5.711-0.66501-10.373-6.395-10.373-12.739 0-6.345 4.662-10.974 10.373-10.309zm-124.45-137.54c10.959 0 19.893 8.459 19.893 18.835 0 10.37-8.934 18.836-19.893 18.836-10.96 0-19.901-8.456-19.901-18.836 0-10.369 8.941-18.835 19.901-18.835zm-0.548 4.7c8.263 0 15.011 6.136 15.011 13.661 0 7.514-6.741 13.651-15.011 13.651-8.263 0-15.011-6.137-15.011-13.651 0-7.525 6.74-13.661 15.011-13.661zm0.183 113.98c9.764 0 17.731 7.822 17.731 17.417 0 9.598-7.961 17.42-17.731 17.42-9.764 0-17.731-7.822-17.731-17.42 0-9.595 7.959-17.417 17.731-17.417zm-0.367 5.652c6.772 0 12.301 5.601 12.301 12.481 0 6.87-5.521 12.481-12.301 12.481-6.769 0-12.298-5.601-12.298-12.481 0-6.87 5.521-12.481 12.298-12.481zm-154.86-98.428c6.572 0 11.942 5.283 11.942 11.765 0 6.484-5.362 11.768-11.942 11.768-6.575 0-11.937-5.284-11.937-11.768 0-6.482 5.362-11.765 11.937-11.765zm0.54-4.284c9.269 0 16.824 7.446 16.824 16.584 0 9.132-7.555 16.585-16.824 16.585-9.262 0-16.825-7.443-16.825-16.585 0-9.128 7.556-16.584 16.825-16.584zm30.213 112.09c8.37 0 15.194 7.456 15.194 16.585 0 9.131-6.824 16.584-15.194 16.584-8.371 0-15.195-7.443-15.195-16.584 0-9.129 6.824-16.585 15.195-16.585zm0.183 5.7c5.878 0 10.669 4.966 10.669 11.062 0 6.088-4.791 11.065-10.669 11.065-5.873 0-10.671-4.966-10.671-11.065 0-6.096 4.791-11.062 10.671-11.062zm-78.34 25.596c4.578 0 8.317 3.865 8.317 8.624 0 4.75-3.731 8.626-8.317 8.626-4.578 0-8.318-3.868-8.318-8.626 0-4.749 3.74-8.624 8.318-8.624zm-48.309-94.672c4.2797 0 7.7755 4.403 7.7755 9.806s-3.4958 9.803-7.7755 9.803c-4.2815 0-7.7774-4.4-7.7774-9.803s3.4959-9.806 7.7774-9.806"/>
 </g>
</svg>
